<svg t="1765327212397" class="icon" viewBox="0 0 1024 1024" version="1.1" xmlns="http://www.w3.org/2000/svg" p-id="1008" width="256" height="256"><path d="M844.8 101.4784c-28.3648 0-53.0944 20.6336-66.4064 51.2H665.6v51.2h102.4c0 18.6368 3.84 36.096 10.3936 51.2H245.6064c6.5536-15.104 10.3936-32.5632 10.3936-51.2h102.4v-51.2H245.6064c-13.312-30.5664-38.0416-51.2-66.4064-51.2s-53.0944 20.6336-66.4064 51.2H0v51.2h102.4c0 46.08 22.9376 85.0944 54.3744 97.8944 2.3552 2.7136 5.7856 4.5056 9.6256 4.5056h691.2c3.84 0 7.2704-1.7408 9.6256-4.5056 31.4368-12.8 54.3744-51.8144 54.3744-97.8944h102.4v-51.2h-112.7936c-13.312-30.5152-38.0416-51.2-66.4064-51.2z m-37.5808 51.2c9.3696-15.0016 22.7328-24.4736 37.5808-24.4736s28.2112 9.472 37.5808 24.4736h-75.1616z m-665.6 0c9.3696-15.0016 22.7328-24.4736 37.5808-24.4736s28.2112 9.472 37.5808 24.4736H141.6192zM844.8 279.6032c-28.2112 0-51.2-33.9456-51.2-75.6736h102.4c0 41.6768-22.9888 75.6736-51.2 75.6736z m-665.6 0c-28.2112 0-51.2-33.9456-51.2-75.6736h102.4c0 41.6768-22.9888 75.6736-51.2 75.6736zM665.6 306.2784c-0.0512 3.4816-1.9456 84.1216-82.8928 128H441.2928C360.3456 390.4 358.4512 309.76 358.4 306.2784l-25.6 0.1536h-25.6c0 3.6864 0.8192 70.656 52.0704 127.8464H297.5232c-51.1488 0-92.7232 45.056-92.7232 100.4544v129.9456h123.0848v-51.2H252.0576v-78.7456c0-27.136 20.3776-49.2544 45.4656-49.2544h428.9536c25.088 0 45.4656 22.0672 45.4656 49.2544v78.7456H696.32v51.2h122.88v-129.9456c0-55.3984-41.5744-100.4544-92.7232-100.4544h-61.7472C715.9808 377.088 716.8 310.1184 716.8 306.432h-25.6l-25.6-0.1536z" fill="#1677ff" p-id="1009"></path><path d="M604.16 562.2784H419.84c-33.792 0-61.44 27.648-61.44 61.44v235.52c0 33.792 27.648 61.44 61.44 61.44h184.32c33.792 0 61.44-27.648 61.44-61.44v-235.52c0-33.792-27.648-61.44-61.44-61.44z m-66.56 102.4v-51.2h66.56c5.5296 0 10.24 4.7104 10.24 10.24v40.96h-76.8z m-128 0v-40.96c0-5.5296 4.7104-10.24 10.24-10.24h66.56v51.2H409.6z m128 102.4v-51.2h76.8v51.2h-76.8z m-128 0v-51.2h76.8v51.2H409.6z m128 102.4v-51.2h76.8v40.96c0 5.5296-4.7104 10.24-10.24 10.24h-66.56z m-117.76 0c-5.5296 0-10.24-4.7104-10.24-10.24v-40.96h76.8v51.2H419.84z" fill="#1677ff" p-id="1010"></path></svg>
